<svg xmlns="http://www.w3.org/2000/svg" width="32" height="32" viewBox="0 0 32 32" fill="none">
  <mask id="mask0_744_174" style="mask-type:alpha" maskUnits="userSpaceOnUse" x="0" y="0" width="32" height="32">
    <rect width="32" height="32" fill="#D9D9D9"/>
  </mask>
  <g mask="url(#mask0_744_174)">
    <path d="M12 23.9998C11.2667 23.9998 10.6389 23.7387 10.1167 23.2165C9.59444 22.6943 9.33333 22.0665 9.33333 21.3332V5.33317C9.33333 4.59984 9.59444 3.97206 10.1167 3.44984C10.6389 2.92762 11.2667 2.6665 12 2.6665H24C24.7333 2.6665 25.3611 2.92762 25.8833 3.44984C26.4056 3.97206 26.6667 4.59984 26.6667 5.33317V21.3332C26.6667 22.0665 26.4056 22.6943 25.8833 23.2165C25.3611 23.7387 24.7333 23.9998 24 23.9998H12ZM12 21.3332H24V5.33317H12V21.3332ZM6.66667 29.3332C5.93333 29.3332 5.30556 29.0721 4.78333 28.5498C4.26111 28.0276 4 27.3998 4 26.6665V7.99984H6.66667V26.6665H21.3333V29.3332H6.66667Z" fill="#8E44AD"/>
  </g>
</svg>
