<svg width="39" height="29" viewBox="0 0 39 29" fill="none" xmlns="http://www.w3.org/2000/svg">
  <path d="M9.51562 0.65625C8.16146 2.48958 7.48438 4.97917 7.48438 8.125C7.48438 11.7917 6.18229 14.0156 3.57812 14.7969C6.18229 15.5781 7.48438 17.8021 7.48438 21.4688C7.48438 24.6146 8.16146 27.1042 9.51562 28.9375H5.375C4.02083 27.1042 3.34375 24.6146 3.34375 21.4688C3.34375 18.2188 2.25 16.5938 0.0625 16.5938V13C2.25 13 3.34375 11.375 3.34375 8.125C3.34375 4.97917 4.02083 2.48958 5.375 0.65625H9.51562ZM22.6562 10.875C21.8021 10.3125 20.7292 10.0312 19.4375 10.0312C16.8646 10.0312 15.5781 11.474 15.5781 14.3594C15.5781 17.7865 16.9167 19.5 19.5938 19.5C20.6771 19.5 21.6979 19.349 22.6562 19.0469V10.875ZM26.7969 22.0156C24.2865 22.6719 21.8333 23 19.4375 23C14.1354 23 11.4844 20.1562 11.4844 14.4688C11.4844 9.21875 14.0781 6.59375 19.2656 6.59375C20.3698 6.59375 21.5 6.85417 22.6562 7.375V0.65625H26.7969V22.0156ZM33.6719 0.65625C35.026 2.48958 35.7031 4.97917 35.7031 8.125C35.7031 11.375 36.7969 13 38.9844 13V16.5938C36.7969 16.5938 35.7031 18.2188 35.7031 21.4688C35.7031 24.6146 35.026 27.1042 33.6719 28.9375H29.5312C30.8854 27.1042 31.5625 24.6146 31.5625 21.4688C31.5625 17.8021 32.4479 15.5781 34.2188 14.7969C32.4479 14.0156 31.5625 11.7917 31.5625 8.125C31.5625 4.97917 30.8854 2.48958 29.5312 0.65625H33.6719Z" fill="white"/>
</svg>
