<svg xmlns="http://www.w3.org/2000/svg" width="25" height="24" viewBox="0 0 25 24" fill="none">
  <mask id="mask0_744_185" style="mask-type:alpha" maskUnits="userSpaceOnUse" x="0" y="0" width="25" height="24">
    <rect x="0.5" width="24" height="24" fill="#D9D9D9"/>
  </mask>
  <g mask="url(#mask0_744_185)">
    <path d="M18.5 21H7.5V8L14.5 1L15.75 2.25C15.8667 2.36667 15.9625 2.525 16.0375 2.725C16.1125 2.925 16.15 3.11667 16.15 3.3V3.65L15.05 8H21.5C22.0333 8 22.5 8.2 22.9 8.6C23.3 9 23.5 9.46667 23.5 10V12C23.5 12.1167 23.4833 12.2417 23.45 12.375C23.4167 12.5083 23.3833 12.6333 23.35 12.75L20.35 19.8C20.2 20.1333 19.95 20.4167 19.6 20.65C19.25 20.8833 18.8833 21 18.5 21ZM9.5 19H18.5L21.5 12V10H12.5L13.85 4.5L9.5 8.85V19ZM7.5 8V10H4.5V19H7.5V21H2.5V8H7.5Z" fill="#2ECC71"/>
  </g>
</svg>
